<?xml version="1.0" encoding="UTF-8" standalone="no"?>
<!DOCTYPE svg PUBLIC "-//W3C//DTD SVG 1.1//EN" "http://www.w3.org/Graphics/SVG/1.1/DTD/svg11.dtd">
<svg version="1.1" xmlns="http://www.w3.org/2000/svg" xmlns:xlink="http://www.w3.org/1999/xlink" preserveAspectRatio="xMidYMid meet" viewBox="0 0 512 512" width="512" height="512"><defs><path d="M467.21 0C491.95 0 512 20.05 512 44.79C512 138.23 512 373.77 512 467.21C512 491.95 491.95 512 467.21 512C373.77 512 138.23 512 44.79 512C20.05 512 0 491.95 0 467.21C0 373.77 0 138.23 0 44.79C0 20.05 20.05 0 44.79 0C138.23 0 373.77 0 467.21 0Z" id="a9FkZWYDk"></path><path d="" id="aAQMejUtz"></path><path d="M256.7 148.45L255.7 144.44L251.69 144.44L237.33 144.44L199.59 152.46L194.58 154.91L193.25 159.26L256.7 148.45Z" id="c4qC4OorB"></path><path d="M23.17 326.65C23.35 319.97 23.47 315.79 23.51 314.12C23.65 308.91 24.58 303.75 26.27 298.82C27.18 296.16 27.18 296.16 28.04 293.64C29.81 288.47 33.62 284.24 38.57 281.94C42.48 280.12 46.69 278.16 50.66 276.31C55.59 274.02 60.86 272.55 66.27 271.95C97.27 268.52 174.78 259.96 298.8 246.25L332.64 243.23C339.52 243.51 343.83 243.68 345.55 243.75C355.98 244.18 365.4 250.1 370.31 259.31C371.94 262.38 369.68 258.14 371.51 261.57C376.07 270.13 378.13 279.79 377.46 289.46C377.12 294.36 377.5 288.75 377.26 292.27C376.28 306.44 371.35 320.06 363.03 331.58C358.7 337.58 361.2 334.12 357.56 339.16C347.38 353.25 331.09 361.64 313.71 361.75C260.19 362.08 119.83 362.94 64.45 363.28C52.62 363.35 41.16 359.14 32.19 351.42C30.94 350.33 36.31 354.97 33.87 352.86C28.73 348.43 25.38 342.3 24.44 335.59C24.27 334.39 23.85 331.42 23.17 326.65Z" id="b6Ycj3wQMi"></path><path d="M335.19 227.13L341.54 229.47L344.21 232.71L339.87 236.72L333.52 235.49L155.51 256.78L153.17 252.77L156.51 250.87L335.19 227.13Z" id="ajBN5JvS5"></path><path d="M98.06 289.97C98.06 292.78 96.04 295.06 93.55 295.06C91.06 295.06 89.04 292.78 89.04 289.97C89.04 287.15 91.06 284.87 93.55 284.87C96.04 284.87 98.06 287.15 98.06 289.97Z" id="c3xtgX3k1I"></path><path d="M167.36 243.99C256.53 232.48 312.26 225.29 334.56 222.41C335.08 222.34 335.54 222.06 335.83 221.63C336.87 220.11 335.82 221.65 335.93 221.49C339.12 216.82 339.84 210.9 337.85 205.61C337.62 204.99 337.04 203.45 336.11 200.99C335.1 200.41 334.47 200.05 334.22 199.9C328.47 196.6 326.08 189.54 328.63 183.42C328.83 182.94 329.33 181.76 330.12 179.86C328.87 175.25 328.09 172.37 327.78 171.22C325.03 161.08 316.49 153.56 306.08 152.11C304.05 151.83 298.95 151.12 290.81 149.99C256.11 156.1 228.25 161 207.23 164.7C178.87 169.69 170.85 171.1 183.19 168.93C171.6 170.97 161.76 178.58 156.86 189.27C156.34 190.4 155.05 193.22 152.99 197.73C150.97 202.13 149.71 204.89 149.2 205.99C146.36 212.19 144.33 218.74 143.18 225.46C143.09 225.94 142.89 227.13 142.56 229.03C142.61 229.15 142.64 229.23 142.66 229.26C143.12 230.35 143.66 231.41 144.28 232.42C144.9 233.42 144.61 232.95 144.92 233.46C146.54 236.08 148.42 238.52 150.55 240.75C151.33 241.57 149.99 240.17 150.65 240.86C153.05 243.37 156.45 244.7 159.93 244.48C160.92 244.41 163.4 244.25 167.36 243.99Z" id="b1LSkMqxKo"></path><path d="M335.86 186.68L337.12 190.36L339.66 189.35L467.73 138.09L465.96 134.85L465.46 131.51L337.12 184.56L335.86 186.68Z" id="bjcIaCNjl"></path><path d="M34.61 300.52C33.25 303.42 32.43 306.55 32.19 309.75C32.07 311.33 31.78 315.29 31.31 321.62C31.89 326.55 32.26 329.62 32.4 330.85C33.1 336.71 35.68 342.19 39.77 346.44C40.42 347.12 39 345.63 40.38 347.07C42.13 348.89 44.27 350.29 46.64 351.15C49 352.01 52.17 353.17 54.46 354C57.1 354.96 59.9 355.45 62.71 355.42C97.06 355.15 182.94 354.46 320.34 353.36C326.86 350.6 330.93 348.88 332.56 348.19C335.5 346.94 338.22 345.24 340.62 343.15C342.12 341.85 341.17 342.68 342.21 341.77C346.13 338.37 349.7 334.58 352.87 330.47C354.13 328.83 354.63 328.17 356.27 326.06C358.22 323.52 359.93 320.81 361.36 317.96C362.41 315.87 363.86 312.97 365.03 310.66C366.07 308.58 366.7 306.33 366.89 304.02C367.11 301.32 367.21 300.18 367.36 298.35C367.78 293.14 367.6 287.91 366.82 282.74C366.56 281.02 366.91 283.34 366.63 281.54C365.89 276.64 364.34 271.89 362.07 267.48C361.46 266.32 361.75 266.87 360.81 265.05C359.64 262.8 358.21 260.69 356.53 258.79C355.33 257.43 355.93 258.1 355.14 257.21C352.23 253.91 348.04 252.01 343.64 252.01C342.39 252.01 339.28 252.01 334.29 252C314.04 254.69 281.53 258.39 236.75 263.09C194.63 267.52 140.89 273.15 75.54 279.99C68.79 280.7 62.15 282.23 55.77 284.54C52.48 285.74 50.03 286.63 46.19 288.02C41.8 289.62 38.21 292.88 36.22 297.11C35.49 298.67 35.56 298.52 34.61 300.52Z" id="a2QDdX1vS"></path><path d="M317.29 176.81L319.17 179.71C318.38 182.12 317.88 183.63 317.68 184.23C317.05 186.18 316.76 188.23 316.85 190.28C316.87 190.87 316.93 192.36 317.03 194.73C317.93 196.64 318.5 197.83 318.72 198.31C319.43 199.8 320.27 201.23 321.22 202.58C321.61 203.12 322.56 204.47 324.09 206.63C324.09 206.63 324.09 206.63 324.09 206.63C327.17 208.9 328.1 213.08 326.29 216.45C326.25 216.51 326.17 216.67 326.02 216.94L170.14 238L164.84 235.88L160.79 227.86L163.6 216.6L170.14 204.9L317.29 176.81Z" id="bMfNqlH86"></path><path d="M485.35 127.18C487.76 131 489.02 135.44 488.99 139.96C488.99 140.92 488.99 139.5 488.98 141.12C488.97 143.29 487.61 145.23 485.57 145.97C465.37 153.39 414.85 171.94 334.03 201.61L329.53 197.93L327.01 192.58L327.01 186.23L329.53 181.22C409.81 151.35 459.98 132.69 480.05 125.23C481.97 124.51 484.13 125.24 485.22 126.97C485.98 128.19 484.95 126.54 485.35 127.18Z" id="b1Q0RbIgLc"></path><path d="M199.02 188.96L286.39 172.85C300.49 170.07 309.31 168.33 312.83 167.63C313 167.6 313.03 167.38 312.88 167.3C311.77 166.72 309 165.25 304.56 162.92L293.4 160.86L289.39 161.72L191.78 179.04C190.52 179.66 189.74 180.04 189.43 180.2C185.51 182.12 182.15 185 179.64 188.57C179.25 189.12 178.28 190.52 176.72 192.74L199.02 188.96Z" id="h1JMLT00iI"></path><path d="M266.72 154.61L260.71 140.95C257.12 140.64 254.87 140.44 253.97 140.36C245.59 139.64 237.14 140 228.85 141.43C222.86 142.46 220.38 142.89 215.14 143.79C204.36 145.65 193.82 148.67 183.69 152.79C182.79 153.15 187.48 151.25 184.61 152.41C181.3 153.76 179.03 156.85 178.74 160.41C178.62 161.78 178.34 165.2 177.88 170.66L266.72 154.61Z" id="e9vSOcsjkH"></path><path d="M167.86 288.88C167.86 293.86 163.97 297.91 159.18 297.91C154.39 297.91 150.5 293.86 150.5 288.88C150.5 283.9 154.39 279.85 159.18 279.85C163.97 279.85 167.86 283.9 167.86 288.88Z" id="l5ctyLVfW8"></path><path d="M90.88 318.13C90.88 332.99 79.28 345.05 65 345.05C50.71 345.05 39.11 332.99 39.11 318.13C39.11 303.28 50.71 291.22 65 291.22C79.28 291.22 90.88 303.28 90.88 318.13Z" id="b3CCRIq24R"></path><path d="M82.53 317.49C82.53 327.7 74.68 336 65.02 336C55.35 336 47.5 327.7 47.5 317.49C47.5 307.27 55.35 298.98 65.02 298.98C74.68 298.98 82.53 307.27 82.53 317.49Z" id="apSTn3JXC"></path><path d="M350.02 298.08C350.02 320.41 331.76 338.53 309.27 338.53C286.78 338.53 268.52 320.41 268.52 298.08C268.52 275.76 286.78 257.64 309.27 257.64C331.76 257.64 350.02 275.76 350.02 298.08Z" id="g3BvFYId55"></path><path d="M143.15 318.13C143.15 328.93 134.77 337.69 124.45 337.69C114.12 337.69 105.74 328.93 105.74 318.13C105.74 307.34 114.12 298.57 124.45 298.57C134.77 298.57 143.15 307.34 143.15 318.13Z" id="a7tCmXNKg"></path><path d="M150.83 317.97C150.83 332.91 139.01 345.05 124.45 345.05C109.88 345.05 98.06 332.91 98.06 317.97C98.06 303.02 109.88 290.88 124.45 290.88C139.01 290.88 150.83 303.02 150.83 317.97Z" id="dKZuxhMwk"></path><path d="M239.84 306.77C239.84 322.54 227.27 335.35 211.78 335.35C196.3 335.35 183.73 322.54 183.73 306.77C183.73 290.99 196.3 278.18 211.78 278.18C227.27 278.18 239.84 290.99 239.84 306.77Z" id="bCb6f8X3f"></path><path d="M247.02 306.29C247.02 326.97 231.23 343.76 211.78 343.76C192.34 343.76 176.55 326.97 176.55 306.29C176.55 285.61 192.34 271.16 211.78 271.16C231.23 271.16 247.02 285.61 247.02 306.29Z" id="h2RkpVgx8d"></path><path d="M268.06 278.9C268.06 283.73 264.17 287.65 259.38 287.65C254.58 287.65 250.69 283.73 250.69 278.9C250.69 274.07 254.58 270.15 259.38 270.15C264.17 270.15 268.06 274.07 268.06 278.9Z" id="a7gMLYLAyb"></path><path d="M269.52 276C269.52 283.75 263.16 290.04 255.33 290.04C247.5 290.04 241.14 283.75 241.14 276C241.14 268.25 247.5 261.96 255.33 261.96C263.16 261.96 269.52 268.25 269.52 276Z" id="a1JvGkkKYG"></path><path d="M339.46 297.51C339.46 314.08 325.99 327.54 309.4 327.54C292.81 327.54 279.34 314.08 279.34 297.51C279.34 280.93 292.81 267.47 309.4 267.47C325.99 267.47 339.46 280.93 339.46 297.51Z" id="aqCHo4xkI"></path><path d="M174.51 288.88C174.51 296.63 168.15 302.92 160.31 302.92C152.48 302.92 146.12 296.63 146.12 288.88C146.12 281.13 152.48 274.84 160.31 274.84C168.15 274.84 174.51 281.13 174.51 288.88Z" id="d9mJHaaw4"></path><path d="M102.4 290.05C102.4 295.12 98.51 299.24 93.72 299.24C88.93 299.24 85.04 295.12 85.04 290.05C85.04 284.97 88.93 280.85 93.72 280.85C98.51 280.85 102.4 284.97 102.4 290.05Z" id="abmJOvwpe"></path><path d="M254.33 150L253.17 147.41L231.46 148.72L211.23 152.44L200.7 155.1C197.25 155.99 195.12 156.95 194.3 158C193.2 159.42 185.42 162.78 198.52 160.26C207.25 158.58 225.86 155.16 254.33 150Z" id="a2y5bEIOy"></path><path d="" id="a2e1aWYUBU"></path><path d="M237.53 307.2C237.53 321.02 226.04 332.24 211.88 332.24C197.73 332.24 186.23 321.02 186.23 307.2C186.23 293.38 197.73 282.16 211.88 282.16C226.04 282.16 237.53 293.38 237.53 307.2Z" id="b5MHJEeoPB"></path><path d="M262.75 275.61C262.75 279.8 259.33 283.21 255.11 283.21C250.89 283.21 247.46 279.8 247.46 275.61C247.46 271.41 250.89 268 255.11 268C259.33 268 262.75 271.41 262.75 275.61Z" id="bMcbP2Mv4"></path><path d="M168 288.88C168 293.22 164.56 296.74 160.33 296.74C156.1 296.74 152.66 293.22 152.66 288.88C152.66 284.54 156.1 281.02 160.33 281.02C164.56 281.02 168 284.54 168 288.88Z" id="b2cO5TB1g5"></path><path d="M142.39 317.63C142.39 328.13 134.56 336.65 124.91 336.65C115.26 336.65 107.43 328.13 107.43 317.63C107.43 307.13 115.26 298.61 124.91 298.61C134.56 298.61 142.39 307.13 142.39 317.63Z" id="b4Gbj1mp4"></path><path d="M98 290C98 292.39 96.19 294.34 93.95 294.34C91.72 294.34 89.9 292.39 89.9 290C89.9 287.61 91.72 285.66 93.95 285.66C96.19 285.66 98 287.61 98 290Z" id="a7KWflF02"></path><path d="M141.86 260.08C141.46 259.33 141.35 258.46 141.54 257.63C141.86 256.26 141.99 255.72 142.17 254.93C142.77 252.36 144.72 250.32 147.26 249.61C148.64 249.22 152.1 248.25 157.64 246.69L329.23 224.14C337.75 223.12 343.08 222.48 345.21 222.22C347.89 221.9 350.6 222.46 352.93 223.81C354.63 224.8 355.26 225.17 356.74 226.03C359.61 227.69 361.27 230.85 361.01 234.16C360.63 238.98 359.83 241.9 358.63 242.9C356.7 244.52 352.95 244.98 347.39 244.27L335.74 244.29L155.97 264.26C151.28 264.94 148.35 265.37 147.18 265.54C145.83 265.73 144.51 265.06 143.87 263.86C143.34 262.87 142.47 261.24 141.86 260.08Z" id="av1fhetxo"></path><path d="M344.52 230.19L347.27 230.93L351.44 233.51L351.06 237.48L337.05 237.02L162.59 256L173.34 251.77L179.53 250.99L344.52 230.19Z" id="e1ndy5vkJ"></path><path d="M336 188.74C336.58 190.29 336.95 191.26 337.09 191.65C337.16 191.84 337.38 191.93 337.56 191.84C338.42 191.43 340.57 190.4 344 188.75L479.28 139.43L478.09 138.42L477.78 134.97L340.8 186.69L336 188.74Z" id="a8r9hRT7"></path></defs><g><g><g><use xlink:href="#a9FkZWYDk" opacity="1" fill="#2a333c" fill-opacity="1"></use></g><g><g><use xlink:href="#aAQMejUtz" opacity="1" fill-opacity="0" stroke="#4156c1" stroke-width="1" stroke-opacity="1"></use></g></g><g><use xlink:href="#c4qC4OorB" opacity="1" fill="#932c11" fill-opacity="1"></use><g><use xlink:href="#c4qC4OorB" opacity="1" fill-opacity="0" stroke="#932c11" stroke-width="4" stroke-opacity="1"></use></g></g><g><use xlink:href="#b6Ycj3wQMi" opacity="1" fill="#ffffff" fill-opacity="1"></use><g><use xlink:href="#b6Ycj3wQMi" opacity="1" fill-opacity="0" stroke="#932c11" stroke-width="4" stroke-opacity="1"></use></g></g><g><use xlink:href="#ajBN5JvS5" opacity="1" fill="#932c11" fill-opacity="1"></use><g><use xlink:href="#ajBN5JvS5" opacity="1" fill-opacity="0" stroke="#932c11" stroke-width="4" stroke-opacity="1"></use></g></g><g><use xlink:href="#c3xtgX3k1I" opacity="1" fill="#932c11" fill-opacity="1"></use></g><g><use xlink:href="#b1LSkMqxKo" opacity="1" fill="#f8f8f8" fill-opacity="1"></use><g><use xlink:href="#b1LSkMqxKo" opacity="1" fill-opacity="0" stroke="#932c11" stroke-width="4" stroke-opacity="1"></use></g></g><g><use xlink:href="#bjcIaCNjl" opacity="1" fill="#932c11" fill-opacity="1"></use><g><use xlink:href="#bjcIaCNjl" opacity="1" fill-opacity="0" stroke="#932c11" stroke-width="4" stroke-opacity="1"></use></g></g><g><use xlink:href="#a2QDdX1vS" opacity="1" fill="#932c11" fill-opacity="1"></use><g><use xlink:href="#a2QDdX1vS" opacity="1" fill-opacity="0" stroke="#932c11" stroke-width="4" stroke-opacity="1"></use></g></g><g><use xlink:href="#bMfNqlH86" opacity="1" fill="#932c11" fill-opacity="1"></use><g><use xlink:href="#bMfNqlH86" opacity="1" fill-opacity="0" stroke="#932c11" stroke-width="4" stroke-opacity="1"></use></g></g><g><use xlink:href="#b1Q0RbIgLc" opacity="1" fill="#ffffff" fill-opacity="1"></use><g><use xlink:href="#b1Q0RbIgLc" opacity="1" fill-opacity="0" stroke="#932c11" stroke-width="4" stroke-opacity="1"></use></g></g><g><use xlink:href="#h1JMLT00iI" opacity="1" fill="#932c11" fill-opacity="1"></use><g><use xlink:href="#h1JMLT00iI" opacity="1" fill-opacity="0" stroke="#932c11" stroke-width="4" stroke-opacity="1"></use></g></g><g><use xlink:href="#e9vSOcsjkH" opacity="1" fill="#ffffff" fill-opacity="1"></use><g><use xlink:href="#e9vSOcsjkH" opacity="1" fill-opacity="0" stroke="#932c11" stroke-width="4" stroke-opacity="1"></use></g></g><g><use xlink:href="#l5ctyLVfW8" opacity="1" fill="#932c11" fill-opacity="1"></use></g><g><use xlink:href="#b3CCRIq24R" opacity="1" fill="#ffffff" fill-opacity="1"></use><g><use xlink:href="#b3CCRIq24R" opacity="1" fill-opacity="0" stroke="#932c11" stroke-width="4" stroke-opacity="1"></use></g></g><g><use xlink:href="#apSTn3JXC" opacity="1" fill="#932c11" fill-opacity="1"></use></g><g><use xlink:href="#g3BvFYId55" opacity="1" fill="#f8f8f8" fill-opacity="1"></use><g><use xlink:href="#g3BvFYId55" opacity="1" fill-opacity="0" stroke="#932c11" stroke-width="4" stroke-opacity="1"></use></g></g><g><use xlink:href="#a7tCmXNKg" opacity="1" fill="#932c11" fill-opacity="1"></use></g><g><use xlink:href="#dKZuxhMwk" opacity="1" fill="#ffffff" fill-opacity="1"></use><g><use xlink:href="#dKZuxhMwk" opacity="1" fill-opacity="0" stroke="#932c11" stroke-width="4" stroke-opacity="1"></use></g></g><g><use xlink:href="#bCb6f8X3f" opacity="1" fill="#932c11" fill-opacity="1"></use></g><g><use xlink:href="#h2RkpVgx8d" opacity="1" fill="#ffffff" fill-opacity="1"></use><g><use xlink:href="#h2RkpVgx8d" opacity="1" fill-opacity="0" stroke="#932c11" stroke-width="4" stroke-opacity="1"></use></g></g><g><use xlink:href="#a7gMLYLAyb" opacity="1" fill="#932c11" fill-opacity="1"></use></g><g><use xlink:href="#a1JvGkkKYG" opacity="1" fill="#ffffff" fill-opacity="1"></use><g><use xlink:href="#a1JvGkkKYG" opacity="1" fill-opacity="0" stroke="#932c11" stroke-width="4" stroke-opacity="1"></use></g></g><g><use xlink:href="#aqCHo4xkI" opacity="1" fill="#932c11" fill-opacity="1"></use></g><g><use xlink:href="#d9mJHaaw4" opacity="1" fill="#ffffff" fill-opacity="1"></use><g><use xlink:href="#d9mJHaaw4" opacity="1" fill-opacity="0" stroke="#932c11" stroke-width="4" stroke-opacity="1"></use></g></g><g><use xlink:href="#abmJOvwpe" opacity="1" fill="#ffffff" fill-opacity="1"></use><g><use xlink:href="#abmJOvwpe" opacity="1" fill-opacity="0" stroke="#932c11" stroke-width="4" stroke-opacity="1"></use></g></g><g><use xlink:href="#a2y5bEIOy" opacity="1" fill="#932c11" fill-opacity="1"></use><g><use xlink:href="#a2y5bEIOy" opacity="1" fill-opacity="0" stroke="#932c11" stroke-width="4" stroke-opacity="1"></use></g></g><g><g><use xlink:href="#a2e1aWYUBU" opacity="1" fill-opacity="0" stroke="#932c11" stroke-width="4" stroke-opacity="1"></use></g></g><g><use xlink:href="#b5MHJEeoPB" opacity="1" fill="#932c11" fill-opacity="1"></use></g><g><use xlink:href="#bMcbP2Mv4" opacity="1" fill="#932c11" fill-opacity="1"></use></g><g><use xlink:href="#b2cO5TB1g5" opacity="1" fill="#932c11" fill-opacity="1"></use></g><g><use xlink:href="#b4Gbj1mp4" opacity="1" fill="#932c11" fill-opacity="1"></use></g><g><use xlink:href="#a7KWflF02" opacity="1" fill="#932c11" fill-opacity="1"></use></g><g><use xlink:href="#av1fhetxo" opacity="1" fill="#ffffff" fill-opacity="1"></use><g><use xlink:href="#av1fhetxo" opacity="1" fill-opacity="0" stroke="#932c11" stroke-width="4" stroke-opacity="1"></use></g></g><g><use xlink:href="#e1ndy5vkJ" opacity="1" fill="#932c11" fill-opacity="1"></use><g><use xlink:href="#e1ndy5vkJ" opacity="1" fill-opacity="0" stroke="#932c11" stroke-width="4" stroke-opacity="1"></use></g></g><g><use xlink:href="#a8r9hRT7" opacity="1" fill="#932c11" fill-opacity="1"></use><g><use xlink:href="#a8r9hRT7" opacity="1" fill-opacity="0" stroke="#932c11" stroke-width="4" stroke-opacity="1"></use></g></g></g></g></svg>